<?xml version="1.0" encoding="iso-8859-1"?>
<!-- Generator: Adobe Illustrator 19.0.0, SVG Export Plug-In . SVG Version: 6.00 Build 0)  -->
<svg version="1.1" id="Layer_1" xmlns="http://www.w3.org/2000/svg" xmlns:xlink="http://www.w3.org/1999/xlink" x="0px" y="0px"
	 viewBox="0 0 512 512" style="enable-background:new 0 0 512 512;" xml:space="preserve">
<g>
	<circle style="fill:#FEE7BE;" cx="429.13" cy="181.047" r="21.113"/>
	<circle style="fill:#FEE7BE;" cx="192.66" cy="181.047" r="21.113"/>
	<circle style="fill:#FEE7BE;" cx="310.895" cy="155.711" r="109.79"/>
</g>
<path style="fill:#666666;" d="M310.895,45.922c-60.636,0-109.79,49.154-109.79,109.79c0,24.208,7.842,46.581,21.113,64.732v-79.511
	l88.676,21.113l88.676-21.113v79.511c13.272-18.151,21.113-40.524,21.113-64.732C420.685,95.076,371.53,45.922,310.895,45.922z"/>
<path style="fill:#F7D04A;" d="M310.895,24.808c-60.636,0-109.79,49.154-109.79,109.79h219.579
	C420.685,73.962,371.53,24.808,310.895,24.808z"/>
<g>
	<path style="fill:#F3B41B;" d="M325.674,25.802c-4.835-0.65-9.767-0.993-14.779-0.993c-60.636,0-109.79,49.154-109.79,109.79
		h29.559C230.664,78.976,272.029,33.021,325.674,25.802z"/>
	<path style="fill:#F3B41B;" d="M310.895,166.268c41.809,0,81.302-9.895,116.288-27.447H194.606
		C229.592,156.373,269.086,166.268,310.895,166.268z"/>
</g>
<g>
	<rect x="179.992" y="121.93" style="fill:#F7D04A;" width="261.806" height="21.113"/>
	<rect x="289.781" y="7.918" style="fill:#F7D04A;" width="42.227" height="114.012"/>
</g>
<path style="fill:#F2F2F2;" d="M437.575,504.082H184.214V307.728c0-17.491,14.179-31.67,31.67-31.67h190.021
	c17.491,0,31.67,14.179,31.67,31.67V504.082z"/>
<path style="fill:#E5E5E5;" d="M215.885,276.058c-17.491,0-31.67,14.179-31.67,31.67v196.355h164.336L229.344,276.058H215.885z"/>
<g>
	<polygon style="fill:#EB6836;" points="279.225,276.058 342.565,276.058 329.897,324.619 291.893,324.619 	"/>
	<polygon style="fill:#EB6836;" points="340.454,451.299 310.895,474.524 281.336,451.299 291.893,324.619 329.897,324.619 	"/>
</g>
<polygon style="fill:#C74B38;" points="329.897,324.619 291.893,324.619 290.265,344.148 331.525,344.148 "/>
<polygon style="fill:#999999;" points="460.8,233.831 414.351,233.831 437.575,356.289 "/>
<path style="fill:#E5E5E5;" d="M437.575,259.167v206.911h0.1c1.067,11.836,11.011,21.113,23.124,21.113s22.057-9.277,23.124-21.113
	h0.1V259.167H437.575z"/>
<g>
	<rect x="437.575" y="318.285" style="fill:#CCCCCC;" width="46.449" height="144.099"/>
	<circle style="fill:#CCCCCC;" cx="460.8" cy="257.056" r="23.225"/>
</g>
<path style="fill:#FEE7BE;" d="M416.462,420.685v-59.118c0-8.745,7.09-15.835,15.835-15.835h54.895
	c8.745,0,15.835,7.09,15.835,15.835v59.118c0,8.745-7.09,15.835-15.835,15.835h-54.895
	C423.552,436.52,416.462,429.43,416.462,420.685z"/>
<path style="fill:#F2F2F2;" d="M245.443,470.301H30.087V317.229c0-8.745,7.09-15.835,15.835-15.835h183.687
	c8.745,0,15.835,7.09,15.835,15.835V470.301z"/>
<path style="fill:#62C9CC;" d="M245.443,317.229c0-8.745-7.09-15.835-15.835-15.835H45.922c-8.745,0-15.835,7.09-15.835,15.835
	v13.372h215.357V317.229z"/>
<path style="fill:#E5E5E5;" d="M69.146,301.394H45.922c-8.745,0-15.835,7.09-15.835,15.835v153.072h23.225V317.229
	C53.311,308.484,60.401,301.394,69.146,301.394z"/>
<path style="fill:#50A9A9;" d="M69.146,301.394H45.922c-8.745,0-15.835,7.09-15.835,15.835v13.372h23.225v-13.372
	C53.311,308.484,60.401,301.394,69.146,301.394z"/>
<path style="fill:#62C9CC;" d="M250.722,504.082H24.808c-8.745,0-15.835-7.09-15.835-15.835v-17.946h257.583v17.946
	C266.557,496.993,259.467,504.082,250.722,504.082z"/>
<path d="M333.811,223.103c3.404-2.745,3.938-7.73,1.193-11.133c-2.745-3.403-7.73-3.938-11.133-1.193
	c-5.126,4.133-10.783,4.58-12.976,4.58c-6.584,0-11.269-3.204-12.977-4.581c-3.405-2.744-8.388-2.207-11.133,1.195
	c-2.744,3.405-2.208,8.389,1.195,11.133c3.747,3.02,11.706,8.087,22.915,8.087C315.708,231.192,325.083,230.14,333.811,223.103z"/>
<path d="M354.177,191.076h5.278c4.373,0,7.918-3.545,7.918-7.918s-3.545-7.918-7.918-7.918h-5.278c-4.373,0-7.918,3.545-7.918,7.918
	S349.805,191.076,354.177,191.076z"/>
<path d="M267.612,175.241h-5.278c-4.373,0-7.918,3.545-7.918,7.918s3.545,7.918,7.918,7.918h5.278c4.373,0,7.918-3.545,7.918-7.918
	S271.985,175.241,267.612,175.241z"/>
<path d="M491.942,338.293v-81.237c0-17.172-13.971-31.142-31.142-31.142h-46.449c-4.887,0-8.689,4.588-7.779,9.392l6.227,32.835
	h-67.015c11.642-3.62,22.7-9.077,32.671-16.092c9.867-6.943,18.661-15.395,25.99-24.979c4.719-6.173,8.834-12.819,12.25-19.802
	c3.856,1.837,8.066,2.812,12.436,2.812c16.008,0,29.031-13.023,29.031-29.031s-13.023-29.032-29.031-29.032
	c-0.197,0-0.395,0.011-0.592,0.015c-0.011-0.357-0.024-0.714-0.038-1.07h13.298c4.373,0,7.918-3.545,7.918-7.918V121.93
	c0-4.373-3.545-7.918-7.918-7.918h-15.014c-8.008-45.276-42.375-82.201-86.858-93.507V7.918c0-4.373-3.545-7.918-7.918-7.918
	h-42.227c-4.373,0-7.918,3.545-7.918,7.918v12.588c-44.484,11.306-78.85,48.231-86.858,93.507h-15.014
	c-4.373,0-7.918,3.545-7.918,7.918v21.113c0,4.373,3.545,7.918,7.918,7.918h13.298c-0.014,0.357-0.027,0.714-0.038,1.07
	c-0.197-0.004-0.395-0.015-0.592-0.015c-16.008,0-29.031,13.023-29.031,29.031s13.023,29.031,29.031,29.031
	c4.369,0,8.579-0.975,12.436-2.812c5.741,11.734,13.438,22.478,22.681,31.706c8.557,8.541,18.418,15.767,29.154,21.33
	c6.111,3.167,12.502,5.795,19.075,7.838h-60.121c-16.44,0-31.107,10.244-36.934,25.336H45.922
	c-13.098,0-23.753,10.655-23.753,23.753v85.509c0,4.373,3.545,7.918,7.918,7.918s7.918-3.545,7.918-7.918v-64.22h199.522v123.865
	H38.004v-17.419c0-4.373-3.545-7.918-7.918-7.918s-7.918,3.545-7.918,7.918v17.419H8.973c-4.373,0-7.918,3.545-7.918,7.918v17.946
	C1.056,501.345,11.711,512,24.808,512h225.913c0.235,0,0.469-0.011,0.702-0.018c0.118,0.005,0.234,0.018,0.354,0.018h105.567
	c4.373,0,7.918-3.545,7.918-7.918s-3.545-7.918-7.918-7.918h-84.232c0.879-2.478,1.362-5.142,1.362-7.918v-17.946
	c0-4.373-3.545-7.918-7.918-7.918h-13.196V317.229c0-13.098-10.655-23.753-23.753-23.753h-32.703
	c4.397-5.83,11.365-9.501,18.979-9.501h57.223l10.783,41.334l-10.445,125.332c-0.221,2.653,0.906,5.239,2.998,6.884l29.559,23.225
	c2.838,2.23,6.945,2.23,9.784,0l29.559-23.225c2.092-1.645,3.22-4.231,2.998-6.884l-10.445-125.332l10.785-41.334h67.119
	l10.364,54.646c-10.134,2.71-17.621,11.968-17.621,22.946v59.118c0,12.205,9.254,22.285,21.113,23.603v51.878h-30.087
	c-4.373,0-7.918,3.545-7.918,7.918s3.545,7.918,7.918,7.918h38.004c4.373,0,7.918-3.545,7.918-7.918v-12.945
	c4.521,2.534,9.743,3.971,15.307,3.971c15.74,0,28.759-11.46,30.849-26.888c0.191-0.682,0.293-1.401,0.293-2.143v-22.119
	c10.829-2.206,19.002-11.803,19.002-23.274v-59.118C510.944,350.096,502.771,340.499,491.942,338.293z M258.639,488.247
	c0,4.366-3.551,7.918-7.918,7.918H24.808c-4.366,0-7.918-3.551-7.918-7.918v-10.029h241.748V488.247z M231.202,309.473
	c3.605,0.74,6.323,3.937,6.323,7.756v5.455H38.004v-5.455c0-3.819,2.719-7.017,6.323-7.756c0.515-0.106,1.048-0.162,1.594-0.162
	h183.687C230.154,309.311,230.687,309.367,231.202,309.473z M209.023,155.711c0-0.538,0.031-1.079,0.038-1.618
	c1.741,0.718,3.488,1.411,5.24,2.091v31.911C210.88,177.917,209.023,167.027,209.023,155.711z M412.729,154.093
	c0.008,0.539,0.038,1.08,0.038,1.618c0,11.316-1.857,22.206-5.278,32.384v-31.912C409.24,155.503,410.988,154.81,412.729,154.093z
	 M442.326,181.047c0,7.277-5.919,13.196-13.196,13.196c-2.29,0-4.484-0.584-6.442-1.685c2.605-7.885,4.403-16.133,5.284-24.65
	c0.384-0.033,0.77-0.057,1.157-0.057C436.407,167.852,442.326,173.771,442.326,181.047z M410.67,114.012h-70.745V36.925
	C375.632,47.548,403.135,77.417,410.67,114.012z M297.699,15.835h26.392v98.177h-26.392V15.835z M187.909,129.847h42.755
	c4.373,0,7.918-3.545,7.918-7.918s-3.545-7.918-7.918-7.918h-19.545c7.535-36.596,35.039-66.464,70.745-77.087v77.087h-17.419
	c-4.373,0-7.918,3.545-7.918,7.918s3.545,7.918,7.918,7.918H433.88v5.278H187.909V129.847z M371.653,150.961
	c-19.736,4.899-40.05,7.39-60.758,7.39c-20.707,0-41.022-2.49-60.758-7.39H371.653z M192.66,194.243
	c-7.277,0-13.196-5.919-13.196-13.196c0-7.277,5.919-13.196,13.196-13.196c0.387,0,0.773,0.024,1.157,0.057
	c0.88,8.517,2.678,16.765,5.284,24.65C197.144,193.66,194.95,194.243,192.66,194.243z M230.136,217.731V161.78
	c25.993,8.24,53.052,12.405,80.759,12.405s54.766-4.166,80.759-12.405v55.951c-18.641,24.216-47.906,39.853-80.759,39.853
	S248.777,241.947,230.136,217.731z M310.895,464.455l-21.314-16.747l9.597-115.171h23.434l9.597,115.171L310.895,464.455z
	 M323.78,316.701h-25.77l-8.537-32.726h42.844L323.78,316.701z M445.493,284.16c4.525,2.565,9.746,4.038,15.307,4.038
	s10.783-1.473,15.307-4.038v53.654h-30.614V284.16z M476.107,257.056c0,8.44-6.867,15.307-15.307,15.307
	c-8.44,0-15.307-6.867-15.307-15.307c0-8.44,6.867-15.307,15.307-15.307C469.24,241.748,476.107,248.616,476.107,257.056z
	 M433.696,241.748c-2.565,4.525-4.038,9.746-4.038,15.307v14.995l-5.747-30.302H433.696z M476.04,465.368
	c-0.715,7.928-7.266,13.906-15.24,13.906s-14.525-5.978-15.24-13.906c-0.017-0.183-0.039-0.363-0.068-0.542v-20.389h30.614v20.386
	C476.079,465.002,476.055,465.183,476.04,465.368z M495.109,420.685c0,4.366-3.551,7.918-7.918,7.918h-54.895
	c-4.188,0-7.618-3.27-7.891-7.39h17.392c4.373,0,7.918-3.545,7.918-7.918s-3.545-7.918-7.918-7.918h-17.419v-5.278h17.419
	c4.373,0,7.918-3.545,7.918-7.918s-3.545-7.918-7.918-7.918h-17.419v-5.278h17.419c4.373,0,7.918-3.545,7.918-7.918
	s-3.545-7.918-7.918-7.918h-17.419v-1.584c0-4.366,3.551-7.918,7.918-7.918h54.895c4.366,0,7.918,3.551,7.918,7.918V420.685z"/>
<path d="M68.091,352.594c-4.373,0-7.918,3.545-7.918,7.918v80.231c0,4.373,3.545,7.918,7.918,7.918h130.903
	c4.373,0,7.918-3.545,7.918-7.918s-3.545-7.918-7.918-7.918H76.008v-72.313C76.008,356.139,72.463,352.594,68.091,352.594z"/>
<path d="M91.311,419.103c3.05,0,5.957-1.774,7.258-4.746l9.645-22.044l12.912,15.494c2.831,3.398,8.087,3.778,11.379,0.816
	l17.103-15.393l16.287,8.143c3.172,1.586,7.014,0.869,9.4-1.756l21.113-23.225c2.941-3.236,2.702-8.243-0.533-11.185
	c-3.236-2.941-8.244-2.703-11.185,0.533l-17.079,18.787l-15.748-7.874c-2.909-1.456-6.417-0.982-8.837,1.196l-15,13.5
	l-15.848-19.018c-3.704-4.444-11.02-3.397-13.336,1.895l-14.779,33.781C81.817,413.143,85.687,419.103,91.311,419.103z"/>
<g>
</g>
<g>
</g>
<g>
</g>
<g>
</g>
<g>
</g>
<g>
</g>
<g>
</g>
<g>
</g>
<g>
</g>
<g>
</g>
<g>
</g>
<g>
</g>
<g>
</g>
<g>
</g>
<g>
</g>
</svg>
